<svg xmlns="http://www.w3.org/2000/svg" viewBox="0 0 800 150" width="100%" height="150" style="background:#0d1117; border-radius:8px; border:1px solid #30363d;">
  <defs>
    <linearGradient id="waveGrad" x1="0%" y1="0%" x2="100%" y2="0%">
      <stop offset="0%" stop-color="#00E5FF" stop-opacity="1" />
      <stop offset="50%" stop-color="#00FF66" stop-opacity="1" />
      <stop offset="100%" stop-color="#FF0055" stop-opacity="1" />
    </linearGradient>
    <pattern id="grid" width="20" height="20" patternUnits="userSpaceOnUse">
      <path d="M 20 0 L 0 0 0 20" fill="none" stroke="#21262d" stroke-width="0.8"/>
    </pattern>
  </defs>
  <!-- Grid Background Sci-Fi -->
  <rect width="100%" height="100%" fill="url(#grid)" />
  
  <!-- Real-Time Text Metrics Overlay -->
  <text x="15" y="25" fill="#00FF66" font-family="monospace" font-size="12" font-weight="bold">SYSTEM TELEMETRY SINE WAVE // EATHESEN V3000-Ω</text>
  <text x="15" y="42" fill="#8b949e" font-family="monospace" font-size="10">FREQUENCY: 7.40 Hz | AMPLITUDE: 15px | PULSES: 0</text>
  <text x="650" y="25" fill="#FF0055" font-family="monospace" font-size="12" font-weight="bold">BPM: 24</text>
  <text x="650" y="42" fill="#00E5FF" font-family="monospace" font-size="10">ENTROPY: 0.00</text>
  
  <!-- Trục Trung Tâm Center Line -->
  <line x1="0" y1="75" x2="800" y2="75" stroke="#30363d" stroke-dasharray="4" />
  
  <!-- Dynamic Sine Wave Glow -->
  <polyline fill="none" stroke="url(#waveGrad)" stroke-width="3" points="0,88.31 10,80.17 20,69.33 30,61.45 40,60.66 50,67.37 60,78.07 70,87.17 80,89.90 90,84.84 100,74.63 110,64.62 120,60.03 130,63.28 140,72.66 150,83.26 160,89.54 170,88.22 180,79.98 190,69.14 200,61.36 210,60.72 220,67.55 230,78.27 240,87.29 250,89.88 260,84.68 270,74.43 280,64.47 290,60.02 300,63.41 310,72.86 320,83.43 330,89.59 340,88.12 350,79.79 360,68.95 370,61.28 380,60.78 390,67.72 400,78.47 410,87.40 420,89.85 430,84.53 440,74.22 450,64.32 460,60.01 470,63.54 480,73.06 490,83.60 500,89.64 510,88.02 520,79.59 530,68.76 540,61.20 550,60.85 560,67.90 570,78.67 580,87.52 590,89.82 600,84.37 610,74.02 620,64.18 630,60.00 640,63.67 650,73.26 660,83.76 670,89.68 680,87.92 690,79.40 700,68.58 710,61.12 720,60.92 730,68.08 740,78.87 750,87.63 760,89.78 770,84.21 780,73.81 790,64.04 800,60.00" />
  <polyline fill="none" stroke="#00FF66" stroke-width="1" stroke-opacity="0.5" points="0,88.31 10,80.17 20,69.33 30,61.45 40,60.66 50,67.37 60,78.07 70,87.17 80,89.90 90,84.84 100,74.63 110,64.62 120,60.03 130,63.28 140,72.66 150,83.26 160,89.54 170,88.22 180,79.98 190,69.14 200,61.36 210,60.72 220,67.55 230,78.27 240,87.29 250,89.88 260,84.68 270,74.43 280,64.47 290,60.02 300,63.41 310,72.86 320,83.43 330,89.59 340,88.12 350,79.79 360,68.95 370,61.28 380,60.78 390,67.72 400,78.47 410,87.40 420,89.85 430,84.53 440,74.22 450,64.32 460,60.01 470,63.54 480,73.06 490,83.60 500,89.64 510,88.02 520,79.59 530,68.76 540,61.20 550,60.85 560,67.90 570,78.67 580,87.52 590,89.82 600,84.37 610,74.02 620,64.18 630,60.00 640,63.67 650,73.26 660,83.76 670,89.68 680,87.92 690,79.40 700,68.58 710,61.12 720,60.92 730,68.08 740,78.87 750,87.63 760,89.78 770,84.21 780,73.81 790,64.04 800,60.00" transform="translate(0, 2)" />
</svg>